<svg width="24" height="24" viewBox="0 0 24 24" fill="none" xmlns="http://www.w3.org/2000/svg">
<path fill-rule="evenodd" clip-rule="evenodd" d="M12.1543 1.5C6.2678 1.5 1.5 6.2678 1.5 12.1543C1.5 16.8688 4.54979 20.8509 8.78488 22.2626C9.31759 22.3558 9.51736 22.0362 9.51736 21.7565C9.51736 21.5035 9.50405 20.6644 9.50405 19.7721C6.82715 20.2649 6.13462 19.1196 5.92154 18.5202C5.80167 18.2139 5.28228 17.2684 4.82947 17.0153C4.45657 16.8156 3.92385 16.3228 4.81615 16.3095C5.65518 16.2962 6.25448 17.0819 6.45425 17.4015C7.41314 19.013 8.94469 18.5602 9.55732 18.2805C9.65054 17.588 9.93022 17.1219 10.2365 16.8555C7.86595 16.5892 5.38882 15.6702 5.38882 11.595C5.38882 10.4363 5.80167 9.47741 6.48089 8.73161C6.37434 8.46525 6.00144 7.37318 6.58743 5.90822C6.58743 5.90822 7.47973 5.62854 9.51736 7.00028C10.3697 6.76056 11.2753 6.6407 12.1809 6.6407C13.0866 6.6407 13.9922 6.76056 14.8445 7.00028C16.8821 5.61522 17.7744 5.90822 17.7744 5.90822C18.3604 7.37318 17.9875 8.46525 17.881 8.73161C18.5602 9.47741 18.9731 10.423 18.9731 11.595C18.9731 15.6835 16.4826 16.5892 14.112 16.8555C14.4982 17.1885 14.8312 17.8277 14.8312 18.8266C14.8312 20.2516 14.8179 21.3969 14.8179 21.7565C14.8179 22.0362 15.0176 22.3691 15.5504 22.2626C17.6654 21.5485 19.5033 20.1891 20.8053 18.3759C22.1073 16.5626 22.808 14.3866 22.8086 12.1543C22.8086 6.2678 18.0408 1.5 12.1543 1.5Z" fill="white"/>
</svg>
