<svg width="24" height="24" viewBox="0 0 24 24" fill="none" xmlns="http://www.w3.org/2000/svg">
<path d="M3.35677 1.63112C2.35903 2.2244 0.394297 4.48573 0.375 5.07901V6.06423C0.375 7.30739 1.5364 8.40509 2.58989 8.40509C3.85564 8.40509 4.91341 7.35253 4.91341 6.10292C4.91341 7.35253 5.92901 8.40509 7.19833 8.40509C8.46409 8.40509 9.45038 7.35253 9.45038 6.10292C9.45038 7.35253 10.5339 8.40509 11.7996 8.40509H11.8225C13.0918 8.40509 14.1746 7.35253 14.1746 6.10292C14.1746 7.35253 15.1616 8.40509 16.4274 8.40509C17.6931 8.40509 18.7123 7.35253 18.7123 6.10292C18.7123 7.35253 19.7665 8.40509 21.0315 8.40509C22.0886 8.40509 23.25 7.30739 23.25 6.06423V5.07901C23.2271 4.48573 21.266 2.2244 20.2647 1.63112C17.1635 1.51935 15.0158 1.5 11.8146 1.5C8.60989 1.50358 4.24372 1.55231 3.36106 1.63112H3.35677ZM9.43538 7.81755C9.31352 8.02769 9.16319 8.21987 8.98868 8.38861V8.3922C8.49155 8.87758 7.82509 9.14931 7.13115 9.14956C6.43608 9.15085 5.76857 8.87714 5.27362 8.3879C5.10409 8.22184 4.95963 8.03187 4.84479 7.824C4.72544 8.0368 4.55891 8.21952 4.38381 8.3879C3.88808 8.87596 3.22108 9.14946 2.52628 9.14956H2.5227C2.43724 9.1461 2.35295 9.12842 2.27327 9.09725C2.18638 10.0353 2.13298 10.9763 2.11317 11.9182V11.9218C2.1096 12.2994 2.1096 12.6046 2.10531 13.0338C2.12818 15.2658 1.8859 20.2628 3.08875 21.4909C4.94986 21.9237 8.37475 22.1214 11.8061 22.125H11.8096C15.2453 22.1214 18.6659 21.9237 20.527 21.4909C21.7298 20.2635 21.4875 15.2658 21.5104 13.0338C21.5068 12.6046 21.5068 12.2994 21.5025 11.9218V11.9182C21.4845 10.9762 21.4311 10.0352 21.3424 9.09725C21.2629 9.12877 21.1785 9.14646 21.093 9.14956H21.0894C20.3946 9.14946 19.7276 8.87596 19.2319 8.3879H19.2355C19.0604 8.21952 18.8931 8.03752 18.7745 7.824H18.7709C18.6572 8.03163 18.5139 8.22158 18.3457 8.3879C17.8499 8.87583 17.1829 9.14919 16.4881 9.14919C15.7934 9.14919 15.1264 8.87583 14.6306 8.3879C14.4588 8.22121 14.3109 8.03144 14.1911 7.824L14.1832 7.81253C14.0603 8.03322 13.9116 8.2231 13.7436 8.3879C13.2479 8.87596 12.5809 9.14946 11.8861 9.14956H11.8825C11.8604 9.14956 11.8339 9.14956 11.8082 9.14597C11.7825 9.14956 11.756 9.14956 11.7303 9.14956H11.7267C11.033 9.15026 10.3671 8.87656 9.87349 8.3879C9.70174 8.22222 9.5551 8.03224 9.43823 7.824L9.43037 7.81253L9.43538 7.81755ZM7.52567 10.2924C8.28112 10.296 8.95152 10.2924 9.78487 11.2031C10.4395 11.1365 11.1249 11.1028 11.8096 11.1028C12.4943 11.1028 13.1797 11.1365 13.8344 11.2031C14.6685 10.2924 15.3382 10.2924 16.0936 10.2924H16.0972C16.4545 10.2924 17.884 10.2924 18.8781 13.0954L19.9466 16.9424C20.7392 19.8049 19.6929 19.8766 18.3907 19.8766C16.4553 19.8049 15.3832 18.3948 15.3832 16.984C14.3111 17.1638 13.0597 17.2498 11.8096 17.2498C10.5596 17.2498 9.30816 17.1638 8.23967 16.984C8.23967 18.3948 7.1676 19.8049 5.23217 19.8766C3.92568 19.873 2.87934 19.8049 3.67196 16.9424L4.74045 13.0954C5.73818 10.2924 7.1676 10.2924 7.52496 10.2924H7.52567ZM11.8104 12.4978C11.8068 12.4978 9.77415 14.3751 9.40607 15.0393L10.7383 14.987V16.1514C10.7383 16.208 11.275 16.1851 11.8104 16.1593C12.3457 16.1851 12.8788 16.208 12.8788 16.1514V14.987L14.2146 15.0393C13.8466 14.3751 11.8104 12.4978 11.8104 12.4978Z" fill="white"/>
</svg>
