<svg width="24" height="24" viewBox="0 0 24 24" fill="none" xmlns="http://www.w3.org/2000/svg">
<g clip-path="url(#clip0_101_12)">
<path d="M23.883 8.94897C23.109 4.86297 19.023 4.35522 19.023 4.35522H0.72299C0.11699 4.35522 0.0427404 5.15247 0.0427404 5.15247C0.0427404 5.15247 -0.0390096 12.4777 0.0224904 16.9777C0.18749 19.3987 2.60849 19.6485 2.60849 19.6485C2.60849 19.6485 10.8742 19.6252 14.5732 19.5982C17.0115 19.1722 17.2575 17.031 17.229 15.8632C21.585 16.1055 24.651 13.0312 23.8822 8.94897H23.883ZM12.8197 12.4612C11.574 13.9102 8.80874 16.434 8.80874 16.434C8.80874 16.434 8.68799 16.5547 8.49599 16.4572C8.42174 16.4025 8.39099 16.3672 8.39099 16.3672C7.94474 15.9262 5.02274 13.32 4.35524 12.414C3.64799 11.4487 3.31649 9.71472 4.26599 8.70297C5.21474 7.69497 7.26974 7.61697 8.62874 9.10872C8.62874 9.10872 10.191 7.32747 12.0975 8.14797C13.9995 8.96922 13.9297 11.16 12.8197 12.4612V12.4612ZM18.9922 12.9382C18.0622 13.0552 17.3092 12.9652 17.3092 12.9652V7.28547H19.0785C19.0785 7.28547 21.0517 7.83672 21.0517 9.92247C21.0517 11.8365 20.067 12.5902 18.993 12.9382H18.9922Z" fill="white"/>
</g>
<defs>
<clipPath id="clip0_101_12">
<rect width="24" height="24" fill="white"/>
</clipPath>
</defs>
</svg>
