<svg xmlns:xlink="http://www.w3.org/1999/xlink" width="59.7679360816544" xmlns="http://www.w3.org/2000/svg" id="screenshot" version="1.1" viewBox="-0.0360837821503992 0.030182278186885014 59.7679360816544 24.021917751367027" height="24.021917751367027" style="-webkit-print-color-adjust: exact;"><g id="shape-58a192a0-80e6-11ec-b17e-db6a9e320310" width="720" version="1.1" height="358"><g id="shape-58c2af30-80e6-11ec-b17e-db6a9e320310"><path d="M56.21661397324533,0.030182278186885014L56.21661397324533,0.030182278186885014ZC55.12961253439653,0.10863649286329746,53.69926864950435,0.4296426741580035,52.34352505238212,0.9740896410646656L44.71217426101521,0.9740896410646656L7.996234404899951,0.9740896410646656L5.084251210655566,0.9740896410646656C5.0842529372741865,0.9740896410646656,-0.0360837821503992,23.313736576316387,-0.0360837821503992,23.313736576316387L-0.03136234330145271,23.313736576316387L23.656193829360518,23.313736576316387L33.269446491231065,23.313736576316387C33.976385484036655,23.726293123078904,34.83533167108703,23.967156432431693,35.79462634734614,24.050753266963966L35.81064505238214,24.052100029553912L37.48684821784968,24.052100029553912L37.5011800164109,24.050917295740874C38.037087930079906,24.00912190005738,38.59623872144675,23.931440461208467,39.174179440871285,23.818397007971043C40.17061886533179,23.623564489985483,41.22181195885696,23.325388662647356,42.31092591569154,22.92827844682006C43.13534577180644,22.627672403654515,43.98180246245397,22.27232477775533,44.840321311374964,21.85959556912212L44.840666635115895,21.859422907251655C46.709014836554616,20.963772259769712,48.63508735454025,19.810568806532274,50.524175699864145,18.419843051136468C51.146663181878466,17.96196880653224,51.74382116749007,17.492368230992724,52.31689195885701,17.014941756172448L52.31706462072748,17.014769094301982C52.84262318187848,16.577467511568102,53.3470729660512,16.133260317323675,53.829036131518706,15.683890533151043L53.83122893727409,15.681870389265896L53.833421743029476,15.67967758351051C55.1873532538209,14.374889094302034,56.21588534015177,13.048300317323537,56.81217656317335,11.849584921640144C57.12277109554748,11.225325065524885,57.31756390130295,10.634737727395532,57.36624591569148,10.086545784949521C57.41492016029588,9.538437583510586,57.30942980058353,9.019619741784027,57.00153138331734,8.612680921640276L57.00135872144688,8.612508259769584C56.775538577561974,8.313741324517878,56.45843296605108,8.116031396460357,56.09454721065549,7.985765871280364C57.27972505238199,7.012537727395511,58.244482750223824,5.973235684230076,58.87720217468427,4.956258216604056C59.61613023223822,3.768570648258901,59.94572965669863,2.591481928834355,59.5850485056194,1.600649007971242L59.5850485056194,1.6004763461005496C59.35429800202246,0.9640200007768271,58.83191123943243,0.48566510581281364,58.14506490849726,0.23791609286308812L58.14489224662657,0.23791609286308812L58.14471958475633,0.23774774753928796C57.839649368928804,0.12800636624433537,57.505918145907344,0.061635494589836526,57.149730520008006,0.03153119905027779L57.1343860595764,0.030182278186885014ZM57.09745972864107,0.7663558367480618C57.39813138331738,0.7702179374673506,57.66552332576339,0.8476263374675455,57.89568332576346,0.9304183604890568C58.418709800583656,1.1191705907049254,58.740316707058355,1.4300217849495311,58.89304131137487,1.851394015165397L58.89321397324534,1.8517307058127699L58.89321397324534,1.8520673964603702C59.13606462072744,2.5187331806328075,58.926032678281445,3.4845596554532676,58.25230778619516,4.567445094302002C57.57858289410865,5.650330533150964,56.464825771806545,6.824244087107672,55.050307210655546,7.88562181372663L54.269449944468306,8.471559281352256L55.24286490849727,8.54693024538119C55.81864649123099,8.591539079913673,56.197790376123066,8.7698160007767,56.41440332576349,9.056485641064683L56.41457598763395,9.056658302935148C56.592121599144775,9.291247079913546,56.67032620346117,9.602293123079107,56.63310116748994,10.021473842503383C56.59587613151871,10.440654561927886,56.43507958475607,10.95480362667604,56.1530536854757,11.521642187827183C55.611760448065525,12.609797871280534,54.63165569986404,13.887577727395637,53.32504131137489,15.147204777755178C52.853957570367584,15.586364202215691,52.36063325382088,16.020974849697723,51.84611814590721,16.449082187827116L51.84594548403675,16.44925484969781C51.28362030418066,16.91773484969781,50.69813944087127,17.378314705812954,50.088132822166244,17.82700851876234L50.08796016029578,17.82700851876234C48.234692246626764,19.1913739863885,46.34635239051158,20.32130607271938,44.5221434696482,21.195770245381027L44.52179814590727,21.19594290725172L44.521625484036804,21.19594290725172C43.68455900921663,21.598372835309192,42.86028591569152,21.94440362667615,42.05883354159073,22.2366355691222C41.001552390511506,22.62213945401436,39.98611325382103,22.909679310129377,39.03286692288566,23.096066936028592C38.48363641928859,23.203494561927982,37.95549742648291,23.276558159050182,37.45328016029566,23.316108950417174L35.85008793008001,23.316108950417174C35.842551239432396,23.315418302935086,35.835351239432384,23.314434130273185,35.82783095166269,23.313752115884654L35.976043901303,23.313752115884654C34.50832562792175,23.185677583510824,33.34947785813756,22.670350964805493,32.659047066770654,21.731130820920725C32.53097253439637,21.557416576316427,32.42518433295754,21.3703262166041,32.33243987252604,21.17453197199984C32.27355613151872,21.030264346100466,32.218248217849805,20.88469484969778,32.16230749842521,20.737481612287638C32.01509167108725,20.269342619481904,31.956403037993596,19.74986175617255,31.98290059195051,19.19633974178396C32.05650807396478,17.653542043942252,32.780351527202356,15.818321612287491,34.03460965669865,13.896598446820008C35.36689023223812,11.854305497179666,37.297866347346144,9.71382751156807,39.68861080777788,7.727477266963888C40.22446605957634,7.282597554733684,40.77855354159078,6.843245612287774,41.35857483655468,6.416326187827053C42.07550231856908,5.888862302935195,42.7979083617347,5.403169900057492,43.52072620346121,4.9488688928631746C46.18381541209442,3.2722556554531366,48.84028908115897,2.0991356554532103,51.19423152720219,1.5032191086904731C48.94481253439653,2.2370760871076527,46.41775757036771,3.482814389265968,43.92101857756188,5.178859856891904C43.83122059195034,5.239511655453043,43.74243008835333,5.301578418042936,43.654101455259706,5.36281899358255C42.268824045187785,6.3226506482587865,41.013868361734694,7.342125065525124,39.91860159914472,8.371586936028507C36.394311239432454,11.685362763366811,34.53148908115918,15.119134274158114,35.37796562792164,17.130804777755202C35.43832476461239,17.26918463387028,35.510217714252576,17.40124420221582,35.59413052000809,17.526375713006928C36.50390749842518,18.86454578494954,38.758638433677106,19.09594636048905,41.61604994446839,18.377545209410073C41.81037138331749,18.32896247559711,42.004812822166286,18.27393082092067,42.20502289410865,18.216517295740914C43.117746347346156,17.953003338906456,44.086693685475666,17.59715240365449,45.0848001602958,17.158457439625636C45.324756131518825,17.052462907251538,45.567326203461334,16.943427799337996,45.81169972864109,16.8271288065323C45.836725340151816,16.815352403654515,45.86035929698642,16.803620029553713,45.885384908497144,16.79037082092077C49.035750088353325,15.225051108690423,51.45674145525982,13.423964202215757,51.98082116748992,12.341798159050086C52.09564821784966,12.106406504373808,52.12325512432449,11.905643051136394,52.04523181497211,11.748272979194098C51.67131181497189,10.990125065525035,49.05488879338941,11.502406792143802,45.885384908497144,12.875464921640287C45.63070605957637,12.985873554733644,45.37302030418073,13.099442763366824,45.11245282216623,13.220451971999864C45.32444016029581,13.023629525956721,45.54515469266994,12.825948950417114,45.770389512813836,12.6314790223596C46.12959095166275,12.322036144661752,46.50140965669857,12.019462619481828,46.897413109936,11.720620317323664C47.5171828941086,11.25130204394236,48.143785771806506,10.82707787128038,48.76060994446834,10.450948662647306C51.64893483655487,8.27189784250345,53.10906807396486,6.210696432431632,52.80433713871298,5.4457775835107896C52.7469227502238,5.301654130273164,52.624684189072696,5.202459195021447,52.43625052000789,5.142101784949546C51.83414577180656,4.950579195021419,50.735223757418,5.179160892863138,49.399998433676956,5.7263531230789795C48.29884390130292,6.1780054971795835,47.03406980058344,6.847775051136523,45.75184131137485,7.6814452669639195L45.57715670705829,7.796440835309113C45.57715843367714,7.796440835309113,45.54495095166271,7.814988518762448,45.54495095166271,7.814988518762448C45.544952678281334,7.814990245381068,44.92849454878501,8.224385957611503,44.92849454878501,8.224385957611503C44.92849282216639,8.224385094302079,45.28258605957626,7.575723626676108,45.28258605957626,7.575723626676108C45.80813857756198,6.613682763366796,46.66420994446844,5.609847799338013,47.73003440490015,4.677398590704797C48.511737714252604,3.9956526914243113,49.40485886533179,3.3533309360286694,50.366162462453985,2.791269928834481C50.72978059195043,2.5784011518558145,51.09281167108702,2.380741123079133,51.456428073964844,2.202466015165328C51.82887872144693,2.0205071662444425,52.20145454878502,1.8588051806329986,52.56507267828147,1.7148310799134379C54.33698577180667,1.1037083748774421,55.36914634734603,0.7441557245178956,57.09745972864107,0.7663558367480618ZZM31.499831527202332,1.0062951374675322C31.35556476461238,3.2081621878271562,31.782460016410823,6.433213209410042,32.7511241890727,10.013882763366837C32.923362174684144,10.65102319502148,33.110896275403775,11.29948074897834,33.31699670705825,11.955317007971189C33.44507382936058,12.360298878474623,33.57713253439647,12.75900276336688,33.712567642310205,13.15147269142426C33.63307411713026,13.268361324517855,33.55310231856902,13.384419454014278,33.478023757417986,13.501011972000015C32.269403613533086,15.3532490943021,31.562963613533157,17.10371326696395,31.384836131518796,18.625899454014416C30.874003901303013,16.915279597899143,30.48934605957629,15.041648806532294,30.271470088353226,13.054856288546489C30.209640735835364,12.48558146840287,30.161209081159086,11.922685641064618,30.128822030799256,11.36651326696392C29.890335412094373,7.326537065524917,30.41781224662668,3.664229525956671,31.499831527202332,1.0062951374675322ZZM7.379777138713052,3.8724147633668053C7.407346059576412,3.8717672813522768,7.434506635115895,3.8724147633668053,7.379777138713052,3.8724147633668053ZC7.462567642310205,3.872413036748185,12.904956994828126,3.8724147633668053,12.904956994828126,3.8724147633668053C13.370152102741713,3.872413036748185,13.729798145907353,3.959574389265981,13.985948937274088,4.134611223798402C14.240626922885667,4.3106797130071755,14.336157282597924,4.5384240871076145,14.275798145907174,4.815479051136663C14.275799872526022,4.815480777755283,13.627135987633892,7.745840979194099,13.627135987633892,7.745840979194099C13.627135987633892,7.745843569122144,11.708801311374827,7.745840979194099,11.708801311374827,7.745840979194099C11.708803037993675,7.745843569122144,12.339084476842572,4.893716461208442,12.339084476842572,4.893716461208442L7.5362519588568375,4.893716461208442C7.536250232238217,4.893716461208442,5.801877109935958,12.732801324517823,5.801877109935958,12.732801324517823C5.801878836554806,12.732801324517823,5.176315037993618,15.57126837487749,5.176315037993618,15.57126837487749C5.176315037993618,15.571270964805535,9.974426635115833,15.57126837487749,9.974426635115833,15.57126837487749C9.974426635115833,15.571270964805535,9.979148937274203,15.552889382071953,9.979148937274203,15.552889382071953C9.979148937274203,15.552891108690574,10.940592390511483,11.210038446819908,10.940592390511483,11.210038446819908C10.940592390511483,11.210036720201288,8.686376850943134,11.210038446819908,8.686376850943134,11.210038446819908C8.686376850943134,11.210036720201288,8.902540879720164,10.230047655453063,8.902540879720164,10.230047655453063C8.902540016410967,10.230045928834443,13.075090232238153,10.230047655453063,13.075090232238153,10.230047655453063C13.075090232238153,10.230045928834443,11.87910375741808,15.649505784949497,11.87910375741808,15.649505784949497C11.862910663892762,15.726644202215539,11.834590663892868,15.796479885668987,11.796313253820927,15.865669813726527C11.697681023605128,16.04527010149627,11.525536275403738,16.19904880653212,11.285578577561864,16.32565225976964C10.952878145907334,16.5008375835107,10.554617138712956,16.587848806532293,10.089422894108793,16.587848806532293C10.089422894108793,16.587850533150913,4.651754376123108,16.587848806532293,4.6517542897922795,16.587848806532293C4.186557973245499,16.587850533150913,3.826913656698707,16.50083585689208,3.5707628653317443,16.32565225976964C3.316085743029589,16.15046952595685,3.219083268209488,15.926855137467555,3.2809134840367733,15.649505784949497C3.2809143473461972,15.649504058330876,5.677608649504464,4.815479051136663,5.677608649504464,4.815479051136663C5.739437138713129,4.538424950417266,5.932408016410818,4.3106779863883276,6.266581253820959,4.134611223798402C6.2783585200079415,4.128282302935077,6.29156292288576,4.126819856891871,6.303339325763318,4.120784806532356C6.608348246626747,3.968004950417253,6.966246779000812,3.882181382071849,7.379777138713052,3.8724147633668053ZZM15.909004189072675,3.8724147633668053C15.909002462454055,3.872413036748185,22.758992678281402,3.8724147633668053,22.758992678281402,3.8724147633668053C23.21830001641092,3.872413036748185,23.579449081159055,3.959574389265981,23.835599872526018,4.134611223798402C24.09322605957641,4.3106797130071755,24.19183325382096,4.5384240871076145,24.13000217468425,4.815479051136663C24.13000390130287,4.815480777755283,22.851056850943223,10.59358118063301,22.851056850943223,10.59358118063301C22.790701167489942,10.868868087107785,22.593177714252533,11.09353484969779,22.257531671087236,11.26989686408615C21.92188562792171,11.446845928834364,21.526874980439516,11.536645641064752,21.06609656317346,11.536645641064752L16.088410232238175,11.536645641064752L15.126966779000895,15.874775137467623C15.126966779000895,15.874776864086243,14.970491958856883,16.587848806532293,14.970491958856883,16.587848806532293C14.970492822166307,16.587850533150913,13.093469225043918,16.587848806532293,13.093469225043918,16.587848806532293C13.093469225043918,16.587850533150913,13.236117282597888,15.943907223798305,13.236117282597888,15.943907223798305C13.236117282597888,15.943908950417153,15.909004189072675,3.8724147633668053,15.909004189072675,3.8724147633668053ZZM25.372021167489947,3.8724147633668053C25.37202030418075,3.872413036748185,27.249044764612336,3.8724147633668053,27.249044764612336,3.8724147633668053C27.249046491230956,3.872413036748185,25.123650520007914,13.473359310129354,25.123650520007914,13.473359310129354C25.123653109935958,13.473361036747974,24.658947498425277,15.57126837487749,24.658947498425277,15.57126837487749C24.658947498425277,15.571270964805535,29.14899958475621,15.57126837487749,29.14899958475621,15.57126837487749C29.196108649504367,15.915602763366678,29.251141167490005,16.253673842503304,29.310026635115946,16.587848806532293C29.310024908497326,16.587850533150913,22.55665454878499,16.587848806532293,22.55665454878499,16.587848806532293C22.55665627540361,16.587850533150913,23.090321311374964,14.177326792143731,23.090321311374964,14.177326792143731C23.090323037993585,14.177326792143731,25.372021167489947,3.8724147633668053,25.372021167489947,3.8724147633668053ZZM17.56058922504394,4.893716461208442C17.56059095166256,4.893716461208442,16.313848793389297,10.515343770561003,16.313848793389297,10.515343770561003C16.313848793389297,10.515342043942383,20.992412246626827,10.515343770561003,20.992412246626827,10.515343770561003C20.992411383317403,10.515342043942383,22.234599584756097,4.893716461208442,22.234599584756097,4.893716461208442ZM13.627135987633892,17.471223195021594C13.645495987633922,17.470618878474625,13.663946635115963,17.471223195021594,13.627135987633892,17.471223195021594ZC13.900317282597825,17.471224921640214,14.090490520007961,17.509532547539493,14.243592390511594,17.58166636048918C14.40699958475625,17.65821686408617,14.52397368547554,17.771942331712125,14.588747786194972,17.92210031732361C14.652049944468445,18.067843338906187,14.668470951662584,18.23321456192798,14.634611095547598,18.41428765545311C14.634611095547598,18.414288518762532,14.62095354159078,18.48325139646022,14.62095354159078,18.48325139646022C14.620954404900203,18.483248806532174,14.08256534015186,18.48325139646022,14.08256534015186,18.48325139646022C14.082563613533239,18.483248806532174,14.08728764231023,18.41883988566906,14.08728764231023,18.41883988566906C14.101202462454012,18.292327943222972,14.085535124324451,18.192867799338046,14.036703757418081,18.124438446820022C14.03034116748995,18.115857151855835,14.02102001641083,18.104477007971127,14.01360332576337,18.096784921640165C14.001458289792254,18.084385209409902,13.983188073964811,18.070258015165336,13.967571671087171,18.060026936028635C13.892258289792153,18.012588087107815,13.774491671087162,17.986510964805575,13.622584620727366,17.986510964805575C13.420902606339041,17.986512691424196,13.270204189072729,18.021569094301867,13.167155268209399,18.092232691424215C13.067049368928792,18.16142348279118,13.003805915691373,18.23875355473365,12.983196131518753,18.331497151855956C12.962584620727512,18.425713554733647,12.996398721446894,18.475131971999872,13.019954117130283,18.50163038926621C13.02064476461237,18.50232103674807,13.023605915691405,18.505532547539588,13.02450375741796,18.506352691424354C13.054332822166316,18.53177283530931,13.157904045187934,18.591381756172495,13.479933109936155,18.667380605093513C13.771413973245444,18.73804333890621,13.964520735835322,18.80142319502147,14.073458289792143,18.85589197199988C14.238339153101606,18.939802187827354,14.353533973245476,19.048535137467525,14.413892246626801,19.18250002955392C14.474247066770658,19.314993842503554,14.487453109936041,19.470105497179702,14.450650232238331,19.63792938207189C14.413847354540394,19.80133571300712,14.330492246626818,19.95203326696401,14.206832678281444,20.093358734589856C14.084646779000877,20.234682475596856,13.929091383317427,20.34666492164024,13.74212965669858,20.42468736768342C13.556639009216724,20.501238734589833,13.35326404518787,20.54423499358245,13.144220591950443,20.54423499358245C12.879236419288645,20.544234130273253,12.666462606338882,20.50418261948198,12.500110663892883,20.42468736768342C12.326398145907206,20.342249094302133,12.201076707058292,20.21206981372643,12.127470951662644,20.04277398638851C12.05680821784972,19.877893986388244,12.041691671087165,19.690800173438674,12.081439296986446,19.4861751374674C12.081439296986446,19.486172547539354,12.09526605957626,19.421764489985435,12.09526605957626,19.421764489985435L12.624379728641088,19.421764489985435L12.619657426482718,19.4861751374674C12.606407354540352,19.608361036748192,12.619484764612253,19.706970820920787,12.651863181878525,19.78057743962563C12.682777426482744,19.851241900057403,12.741775124324477,19.909794130273212,12.835990663892971,19.95543125257541C12.93609483655473,20.004009669841707,13.061111527202229,20.02894722379847,13.203908937274264,20.02894722379847C13.331985196266942,20.028946360489044,13.449095699864074,20.007531971999924,13.553616563173364,19.96925801516545C13.656665484036694,19.932455137467514,13.73854864950431,19.883886216604196,13.797434117130251,19.822056864086335C13.854845915691385,19.7602249216402,13.888434692669762,19.694766216604194,13.903155843749119,19.624102619481846C13.91787699482802,19.560801324517797,13.914524764612224,19.507409094302147,13.889498289792073,19.46324391444591C13.861527930080001,19.416138302934996,13.806051671087062,19.374305784949456,13.719196707058245,19.338974849697706C13.719196707058245,19.338973986388282,13.268320448065424,19.20559959789921,13.268320448065424,19.20559959789921C13.01658634734622,19.142299166244356,12.847112678281292,19.081829525956664,12.748479584756296,19.021472115884762C12.614513829360476,18.941977727395624,12.517956994828182,18.840152115884848,12.467904045187879,18.717965353294858C12.417851958857,18.59724794322301,12.412585771806562,18.46341427415814,12.444972822166164,18.317672979193958C12.478831814971954,18.161627223798405,12.55394404518779,18.013114705812768,12.67024217468429,17.880622619481983C12.788014836554794,17.746656864086162,12.94004620346118,17.641584346100444,13.121119296986308,17.57239441804313C13.281213973245485,17.512359022359533,13.449660304180725,17.477192979194115,13.627135987633892,17.471223195021594ZZM18.45762116749006,17.480328518762462C18.4867362754037,17.47805801516529,18.51404793007987,17.480328518762462,18.45762116749006,17.480328518762462ZC18.54496476461236,17.480328518762462,18.876292534396498,17.517254849697565,18.876292534396498,17.517254849697565L18.986735699864084,17.52636017343866C18.986737426482705,17.526361036748085,18.825707786194926,17.93575787128043,18.825707786194926,17.93575787128043L18.79350289410877,18.000168518762393C18.79350289410877,18.000166792143773,18.540411671087213,17.977237295740906,18.540411671087213,17.977237295740906C18.465700016410892,17.977237295740906,18.410853109935942,17.988719310129454,18.374831527202332,18.013995281352436C18.37244016029581,18.015799597899104,18.367769656698556,18.02133341084891,18.365557858137436,18.023268950417105C18.36073195885683,18.027499166244525,18.352637570367733,18.03486405833064,18.347178002022247,18.04164794322287C18.32502634734601,18.070699166244594,18.29808850561949,18.122652259769666,18.27821512432456,18.21650175617242C18.278213397705713,18.21650175617242,18.268668649504434,18.256157871280493,18.259836131518796,18.290018590704904C18.37613512432449,18.290019454014327,18.655407066770522,18.290018590704904,18.655407066770522,18.290018590704904C18.655407066770522,18.290019454014327,18.554237570367604,18.74544794322287,18.554237570367604,18.74544794322287C18.554237570367604,18.745447079913447,18.264932246626813,18.74544794322287,18.167771958856974,18.74544794322287C18.138327930079868,18.87793916624446,17.77675325382097,20.49820161228763,17.77675325382097,20.49820161228763C17.776751527202123,20.498199885668782,17.243086491230997,20.49820161228763,17.243086491230997,20.49820161228763C17.243084764612377,20.498199885668782,17.58994087972019,18.941242187827356,17.634105196267,18.74544794322287C17.54430289410857,18.745447079913447,17.32587699482815,18.74544794322287,17.32587699482815,18.74544794322287C17.32587699482815,18.745447079913447,17.427213973245443,18.29001772739548,17.427213973245443,18.290018590704904C17.427214836554867,18.290019454014327,17.646810520007875,18.290018590704904,17.730721599144772,18.290018590704904C17.7454427502239,18.226717295740855,17.767647930079875,18.147369669841737,17.767647930079875,18.147369669841737C17.8000358437489,18.000156432431595,17.8337592969865,17.894369094301965,17.877922750223888,17.820762475596894C17.938282750223834,17.719186360488948,18.023548361734584,17.63422118063295,18.131013973245445,17.572392691424284C18.21952649123091,17.520960173438652,18.33145023223824,17.490154705812984,18.45762116749006,17.480328518762462ZZM19.732014261015138,17.503428950417174C19.732012534396517,17.50342808710775,19.592491383317338,18.13102808710778,19.557160448065588,18.290018590704904C19.660208505619494,18.290019454014327,19.90214663511597,18.290018590704904,19.90214663511597,18.290018590704904C19.90214663511597,18.290019454014327,19.800978002022475,18.74544794322287,19.800978002022475,18.74544794322287C19.800976275403627,18.745447079913447,19.54726260633879,18.74544794322287,19.45599095166267,18.74544794322287C19.42801886533175,18.872049669841545,19.20745282216626,19.854260892863294,19.20745282216626,19.854260892863294C19.20745454878488,19.854259166244447,19.189073829360495,19.972155281352343,19.189073829360495,20.006014274158133C19.18909800202232,20.007145209409828,19.188987498425377,20.009735137467487,19.189073829360495,20.01056391444581C19.189146347346195,20.01090923818697,19.188987498425377,20.015001324517925,19.189073829360495,20.01528621660418C19.18924649123096,20.015545209409993,19.19344217468415,20.015113554733716,19.193623469648173,20.01528621660418C19.193623469648173,20.015284489985333,19.248929656698692,20.01983585689186,19.248929656698692,20.01983585689186L19.501851671087024,20.00145686408632L19.47436735454039,20.410854561927863C19.474369944468435,20.410854561927863,19.47891699482807,20.48453974178392,19.47891699482807,20.48453974178392C19.478915268209448,20.4845380151653,19.115550951662726,20.5258499576114,19.115551814971923,20.5258499576114C18.971284189072776,20.52584823099278,18.8654942610151,20.50238607271922,18.78894375741811,20.45233398638834C18.70797828979221,20.399333698618648,18.660712102741854,20.329049094302036,18.641574261015194,20.24072218782726C18.638630376123047,20.224527367683322,18.632468937274098,20.20089513746734,18.632468937274098,20.167037007970976C18.632468937274098,20.100790101496386,18.64491440490019,19.988719597899035,18.687605915691393,19.79439815905016C18.68760764231024,19.79439988566901,18.88109771425252,18.927988662647294,18.922318145907184,18.745443626676206C18.853129944468492,18.745442763366782,18.669226922885628,18.745443626676206,18.669226922885628,18.745443626676206C18.669228649504475,18.745442763366782,18.770396419288545,18.29001427415824,18.770396419288545,18.29001427415824C18.770394692669925,18.290015137467435,18.949880160295834,18.29001427415824,19.0234876423101,18.29001427415824C19.04703958475625,18.18402146840276,19.12937771425254,17.82075815905023,19.12937771425254,17.82075815905023C19.12937771425254,17.82075988566885,19.557154404900075,17.595319597899106,19.557154404900075,17.595319597899106C19.55715354159065,17.595321324517954,19.732008217849625,17.50342463387051,19.732014261015138,17.503428950417174ZZM2.7794512682094137,17.52180794322294L4.849538980439547,17.52180794322294L4.734543498425182,18.037095713007147C4.734543498425182,18.037097439625768,3.3535463761231767,18.037095713007147,3.221054289792164,18.037095713007147C3.1975014840368203,18.14161916624448,3.1031596423101746,18.564861756172377,3.0693006495043846,18.71796362667601L4.380283124324478,18.71796362667601L4.265287642310113,19.233082187827222L2.95430516749002,19.233082187827222C2.926334807777721,19.3611584468199,2.673561023605089,20.49820161228763,2.673561023605089,20.49820161228763C2.6735627502239367,20.498199885668782,2.1169625200079736,20.49820161228763,2.1169625200079736,20.49820161228763C2.1169633833173975,20.498199885668782,2.7794512682094137,17.52180794322294,2.7794512682094137,17.52180794322294ZZM5.553507066770635,18.248707511568227C5.574284332957632,18.246152115884797,5.596986261015218,18.248707511568227,5.553507066770635,18.248707511568227ZC5.7504101459071535,18.248707511568227,5.872786491230954,18.288897151855963,5.990557426482837,18.372808230992632C5.990557426482837,18.37280995761148,6.064073656698611,18.423392979193977,6.064073656698611,18.423392979193977L5.778945455259873,18.892648230992563C5.778945455259873,18.892646504373943,5.7007080451878664,18.837511252575496,5.7007080451878664,18.837511252575496C5.643294520007885,18.800709238186982,5.581354491230968,18.7823742741582,5.516580390511535,18.7823742741582C5.460638807777741,18.78237600077682,5.408718347346166,18.802179454014095,5.355721512813716,18.837511252575496C5.299781656698542,18.874314130273206,5.252955843749078,18.923017727395518,5.217625771806524,18.989264633870334C5.155795555979239,19.102620605093307,5.110612879720293,19.229717007970976,5.079698635115847,19.36662578494952C5.079698635115847,19.366626648258716,4.831159901302954,20.49820161228763,4.831159987633782,20.49820161228763C4.831159987633782,20.498199885668782,4.29749313871298,20.49820161228763,4.29749313871298,20.49820161228763C4.29749313871298,20.498199885668782,4.789849253820876,18.290018590704904,4.789849253820876,18.290018590704904C4.789850980439724,18.290019454014327,5.28658934015175,18.290018590704904,5.28658934015175,18.290018590704904C5.28658934015175,18.290019454014327,5.269546318569155,18.357056288546573,5.263657685475664,18.38208190005753C5.287212217849628,18.36441772739545,5.312010606338845,18.340194130273176,5.332621253820889,18.326944921640006C5.403928016410873,18.284392403654692,5.4793099444684685,18.25781887847461,5.553507066770635,18.248707511568227ZZM7.135959584756165,18.248707511568227C7.168091095547425,18.246272979194146,7.199729656698764,18.248707511568227,7.135959584756165,18.248707511568227ZC7.532891958856908,18.248707511568227,7.760206491230974,18.353917295740757,7.908891671087076,18.561488806532225C8.001635268209384,18.695451971999773,8.051539728641046,18.861131396460223,8.051539728641046,19.05839758351067C8.051539728641046,19.167334274158293,8.038029800583445,19.284413698618664,8.01006030418057,19.412489094302146L7.9687500883533176,19.57351614466188C7.9687500883533176,19.573514418043032,6.619076505619432,19.57351614466188,6.468918520007946,19.57351614466188C6.465974635115799,19.604429525956675,6.464366289792224,19.637609957611403,6.464366289792224,19.665580317323474C6.464366289792224,19.780408230992634,6.487829570367694,19.870803626676206,6.537882520007997,19.937050533150796C6.56166669266986,19.969435856892005,6.58939161353328,19.99858636048907,6.620841109936009,20.01984017343875C6.680131469648359,20.058506936028607,6.756517858137386,20.079698590704993,6.846110376123079,20.079698590704993C6.95504965669852,20.079696864086145,7.050880448065527,20.049600173438648,7.1406810236051115,19.992187511568318C7.226066635115785,19.937718734589907,7.307643325763365,19.85070578494947,7.379777138713052,19.729990964805665C7.379777138713052,19.72998837487762,7.9502018869143285,19.729990964805665,7.9502018869143285,19.729990964805665C7.9502018869143285,19.72998837487762,7.899618002022407,19.840434130273252,7.899618002022407,19.840434130273252C7.7906795847561625,20.061255713007085,7.6388148365547295,20.233534274158046,7.448909225043963,20.35572190005746C7.25900447684262,20.477908662647224,7.031962750223784,20.544233266964056,6.781699728641115,20.544233266964056C6.456358318569073,20.544232403654405,6.214232073964922,20.43902348279107,6.064074088353209,20.231452835309256C5.915389685475702,20.0282962885467,5.883409771806555,19.74742204394238,5.962904937274288,19.394110101496153C6.042401052382047,19.034910389266088,6.201036476842546,18.7478729791942,6.432160793389357,18.547662043942182C6.63931877900086,18.368040173438658,6.8743215991446505,18.268480748978163,7.135959584756165,18.248707511568227ZZM9.532824045187908,18.248707511568227C9.564953829360547,18.246272979194146,9.59659411713028,18.248707511568227,9.532824045187908,18.248707511568227ZC9.929757282597848,18.248707511568227,10.157070088353294,18.353917295740757,10.305755268209396,18.561488806532225C10.398499728641127,18.695451971999773,10.448234980439565,18.861131396460223,10.448234980439565,19.05839758351067C10.448234980439565,19.165862331712106,10.434895987633809,19.281332547539478,10.406924764612313,19.407936000776772C10.406924764612313,19.40793772739562,10.365445340151837,19.57351614466188,10.365445340151837,19.57351614466188C10.365445340151837,19.573514418043032,9.015939153101499,19.57351614466188,8.865782030799437,19.57351614466188C8.864305771806585,19.59412333890623,8.862708649504384,19.612764777755274,8.861232390511532,19.633374561927894C8.860127354540282,19.641101180633086,8.861750376123155,19.652885353294778,8.861232390511532,19.661027223798555C8.861189225043972,19.662356720201387,8.861232390511532,19.66429053315096,8.861232390511532,19.665576864086233C8.861232390511532,19.68766031732366,8.864305771806585,19.709376864086153,8.865782030799437,19.729987511568197C8.8731374264828,19.81389772739567,8.89499900921669,19.88405024538133,8.934745771806547,19.937047079913555C8.942316994828161,19.947351540345153,8.94952735454035,19.96007413027337,8.957846203461258,19.969252835309362C9.025271527202221,20.041385784949398,9.120602462453917,20.079695137467525,9.242973973245398,20.079695137467525C9.35191325382084,20.079693410848904,9.449047642310234,20.049596720201407,9.53737627540363,19.99218405833085C9.622761023605108,19.93771528135244,9.70450605957626,19.850702331712,9.776640735835372,19.729987511568197C9.776640735835372,19.729984921640153,10.351618577562022,19.729987511568197,10.351618577562022,19.729987511568197C10.351617714252598,19.729984921640153,10.296481599144727,19.840430677035783,10.296481599144727,19.840430677035783C10.187544045187906,20.061252259769617,10.035510088353249,20.233530820920805,9.845604476842482,20.355718446819992C9.655698865331715,20.477905209409982,9.428825484036679,20.54422981372636,9.178563325763434,20.54422981372636C8.853222606338932,20.544228950417164,8.6110954120943,20.43902002955383,8.460937426482815,20.231449382071787C8.36377627540378,20.098955569122154,8.318289368928845,19.930197583510562,8.318289368928845,19.729987511568197C8.318289368928845,19.699070677035706,8.319895124324603,19.665757295740832,8.322839009216523,19.633371108690426C8.328726779000817,19.556820605093435,8.340627498425192,19.479491396460162,8.359765340151853,19.394106648258912C8.439262318569035,19.036378878474807,8.593175699864105,18.74786952595673,8.824300016410916,18.54765859070494C9.031457138712994,18.368036720201417,9.271182606338925,18.268477295740922,9.532824045187908,18.248707511568227ZZM16.06075757036774,18.248707511568227C16.09363584374887,18.246178015165242,16.123883613533053,18.248707511568227,16.06075757036774,18.248707511568227ZC16.463578577561975,18.248707511568227,16.69896764231021,18.352308950417182,16.852067786194993,18.55693571300708C17.00370030418071,18.76155988566893,17.040535124324606,19.037581468402777,16.96251095166258,19.385004777755285C16.902154404900102,19.65587931012942,16.81500505238205,19.874675569122246,16.695762174684205,20.033666936028567C16.576516707058317,20.192658302935115,16.42448620346113,20.322531108690555,16.244885052382187,20.410858878474755C16.06676016029587,20.49918751156838,15.878022606338845,20.54423326696383,15.688117858137502,20.54423326696383C15.376025484036745,20.544232403654405,15.14375037612308,20.437550677035688,14.993592390511594,20.231452835309256C14.896430376123135,20.100433554733627,14.846391239432478,19.93167297919399,14.846391239432478,19.729990964805665C14.846392966051098,19.62105254753942,14.858260016410895,19.505278446820057,14.887702318569154,19.375731108690616C14.976031814971975,18.98119787128053,15.156384045187906,18.680653123079082,15.421369081159128,18.48780362667617C15.615873541590645,18.3474001734387,15.830607066770654,18.26639844681995,16.06075757036774,18.248707511568227ZZM24.143828937274066,18.248707511568227C24.182643325763365,18.246316144661705,24.218570807777724,18.248707511568227,24.2588243329576,18.248707511568227C24.44431411713026,18.248707511568227,24.59001656317332,18.26748190005742,24.700426922885754,18.31311815905019C24.81819785813741,18.36022808710777,24.901688505619404,18.42685571300717,24.948796707058364,18.506350964805733C24.994434692669756,18.581426936028492,25.017760448065474,18.673573123078995,25.017760448065474,18.786926504373923C25.017761311374898,18.786928230992544,24.96262346964818,19.122808230992632,24.96262346964818,19.122808230992632C24.96262605957645,19.122808230992632,24.861454836554685,19.5782375835106,24.861454836554685,19.5782375835106C24.774596419288628,19.966878734589955,24.755429225044054,20.112571684230033,24.7510116710871,20.167041324517868C24.746591527202327,20.240648806532135,24.75333397324539,20.312407079913555,24.773942894108586,20.378653123078948C24.773944620727434,20.378651396460327,24.81087008835334,20.49820161228763,24.81087008835334,20.49820161228763C24.81087181497196,20.498199885668782,24.267929656698698,20.49820161228763,24.267929656698698,20.49820161228763C24.26792793007985,20.498199885668782,24.24499757036756,20.429237871280293,24.24499757036756,20.429237871280293C24.236165052382148,20.396853410848735,24.2386608797201,20.35559931012949,24.23572390130289,20.31879556912213C24.13267498043956,20.38209686408618,24.02951382936044,20.438330245381167,23.936769368928708,20.470717295740997C23.799862318569012,20.517827223798577,23.65781426101512,20.54423326696383,23.513544908497124,20.54423326696383C23.263283613533076,20.544232403654405,23.077935412094348,20.479077583510616,22.96605224662676,20.351000461208514C22.880669225043903,20.256784921640246,22.84178231856913,20.141586648258908,22.84178231856913,20.010566504373855C22.84178059195051,19.960514418043203,22.848386635115958,19.90872880653228,22.86016217468432,19.854260892863294C22.885186922885623,19.742378590704902,22.930675555979178,19.638776288546524,23.00281023223829,19.54603182811502C23.073472966051213,19.454757583510627,23.157132822166204,19.379615137467454,23.2513483617347,19.325146360489043C23.342622606338864,19.270678446820057,23.444310088353177,19.232097151856124,23.550303757418078,19.205597871280588C23.55030203079923,19.205597871280588,23.876910951662694,19.150292547539493,23.876910951662694,19.150292547539493C24.128646779000746,19.120848518762386,24.31662030418056,19.084318446819907,24.452057138712917,19.044570820920853C24.455001023605064,19.029849669841497,24.461162462454013,19.012365065525046,24.461162462454013,19.012365065525046C24.482508649504325,18.917644489985378,24.47988591569151,18.8463593101294,24.456612822166335,18.809858590704835C24.454903469648343,18.80750175617254,24.449266059576303,18.8027794540144,24.44733915310144,18.800753266963966C24.44236649123104,18.7954525475393,24.43475555597911,18.787153554733777,24.428960160295674,18.7823742741582C24.373591814972087,18.738558734589787,24.27917167108717,18.71796362667601,24.152936850943206,18.71796362667601C24.01013944087117,18.71796362667601,23.90449023223823,18.741291972,23.830882750223736,18.786926504373923C23.75874893727405,18.83256362667612,23.691981455259793,18.916055137467538,23.633096850943275,19.035297151855957C23.63309598763385,19.03529628854676,23.07649800202239,19.035297151855957,23.07649800202239,19.035297151855957C23.07649972864101,19.03529628854676,23.127082750223735,18.92485398638837,23.127082750223735,18.92485398638837C23.193327066770507,18.77175038926589,23.2722672106554,18.644823195021445,23.370900304180623,18.547662043942182C23.469533397705845,18.450499166244526,23.602792102741887,18.375219454014314,23.75736591569148,18.322223482791287C23.875825771806603,18.28311815905022,24.005209944468334,18.25726031732347,24.143828937274066,18.248707511568227ZZM26.476112678281424,18.248707511568227C26.49687181497211,18.246152115884797,26.519590663892814,18.248707511568227,26.476112678281424,18.248707511568227ZC26.67448562792174,18.248707511568227,26.80011354159069,18.288897151855963,26.917884476842573,18.372808230992632C26.917886203461194,18.37280995761148,26.986848217849683,18.423392979193977,26.986848217849683,18.423392979193977C26.986849081159107,18.423392979193977,26.70155123943232,18.892648230992563,26.70155123943232,18.892648230992563C26.701552102741744,18.892646504373943,26.62331382936054,18.837511252575496,26.62331382936054,18.837511252575496C26.565901167489983,18.800709238186982,26.507207354540242,18.7823742741582,26.443906922885617,18.7823742741582C26.387963613533202,18.78237600077682,26.33279814590719,18.802179454014095,26.278326779000736,18.837511252575496C26.222387786194986,18.874314130273206,26.181755268209372,18.923017727395518,26.144952390511662,18.989264633870334C26.084593253820913,19.102620605093307,26.037770807777633,19.229717007970976,26.006856563173415,19.36662578494952C26.006854836554794,19.366626648258716,25.753934548784855,20.49820161228763,25.753934548784855,20.49820161228763C25.753936275403703,20.498199885668782,25.22026778619511,20.49820161228763,25.22026778619511,20.49820161228763C25.22026778619511,20.498199885668782,25.712455124324606,18.290018590704904,25.712455124324606,18.290018590704904C25.712454261015182,18.290019454014327,26.20936390130305,18.290018590704904,26.20936390130305,18.290018590704904C26.20936390130305,18.290019454014327,26.196872678281352,18.357056288546573,26.190984908497285,18.38208190005753C26.21453771425263,18.36441772739545,26.237865196266966,18.340194130273176,26.25994778619497,18.326944921640006C26.330102894108677,18.284392403654692,26.4019682178498,18.25781887847461,26.476112678281424,18.248707511568227ZZM28.05418174302963,18.248707511568227C28.086283901302977,18.246272979194146,28.117951814972002,18.248707511568227,28.05418174302963,18.248707511568227ZC28.451114117130373,18.248707511568227,28.679729656698555,18.353917295740757,28.826944620727318,18.561488806532225C28.921161886914433,18.695451971999773,28.969592678281288,18.861131396460223,28.969592678281288,19.05839758351067C28.969590951662667,19.167334274158293,28.951531383317388,19.284413698618664,28.92356102360509,19.412489094302146L28.88680303799356,19.57351614466188C28.886802174684135,19.573514418043032,27.535655699864037,19.57351614466188,27.38697138331736,19.57351614466188C27.384027498425212,19.604429525956675,27.377866059576263,19.637609957611403,27.377866059576263,19.665580317323474C27.377866059576263,19.780408230992634,27.402801886914403,19.870803626676206,27.451382894108747,19.937050533150796C27.45895411713036,19.94735499358262,27.47068562792174,19.96007758351061,27.47903555597918,19.969256288546603C27.483870088353342,19.974410245381023,27.49231757036773,19.982851684230127,27.497414548784946,19.987635281352368C27.56322893727429,20.047464346100696,27.652888793389366,20.079698590704993,27.764332534396544,20.079698590704993C27.87327267828141,20.079696864086145,27.968934261015193,20.049600173438648,28.058733973245353,19.992187511568318C28.144119584756254,19.937718734589907,28.224393541590644,19.85070578494947,28.29799929698629,19.729990964805665C28.29799757036767,19.72998837487762,28.872976275403744,19.729990964805665,28.872976275403744,19.729990964805665C28.872976275403744,19.72998837487762,28.81783929698645,19.840434130273252,28.81783929698645,19.840434130273252C28.708900879720204,20.061255713007085,28.55539584374901,20.233534274158046,28.366962174684204,20.35572190005746C28.175586347346098,20.477908662647224,27.95165685094321,20.54423326696383,27.699921023605157,20.54423326696383C27.374582030799274,20.544232403654405,27.137005340151973,20.43902348279107,26.986848217849683,20.231452835309256C26.838160448065537,20.0282962885467,26.802933973245445,19.74742204394238,26.880957282598047,19.394110101496153C26.960451671087185,19.034910389266088,27.11453598763387,18.7478729791942,27.345661167490107,18.547662043942182C27.554128793389282,18.368040173438658,27.79278462072739,18.268480748978163,28.05418174302963,18.248707511568227ZZM19.998763037993513,18.290018590704904C19.99876476461236,18.290019454014327,20.54625656317353,18.290018590704904,20.54625656317353,18.290018590704904C20.54625828979215,18.290019454014327,20.61374836173468,19.600412547539463,20.61522030418064,19.619548662647503C20.63730203079922,19.57262261948199,20.654509512813775,19.533253986388445,20.656699728641115,19.527652835309254C20.65670059195031,19.52765369861845,21.2593302322382,18.290018590704904,21.2593302322382,18.290018590704904C21.25933195885682,18.290019454014327,21.760791239432365,18.290018590704904,21.760791239432365,18.290018590704904C21.76079037612317,18.290019454014327,21.80682289410879,19.58470377056119,21.80682289410879,19.592064346100642C21.821546635115965,19.565568518762575,22.492243901303027,18.29001772739548,22.492243901303027,18.290018590704904C22.49224217468418,18.290019454014327,23.03501598763387,18.29001772739548,23.03501598763387,18.290018590704904C23.035015124324445,18.290019454014327,21.83902864950437,20.49820161228763,21.83902864950437,20.49820161228763C21.83903037612299,20.498199885668782,21.346672102741877,20.49820161228763,21.346672102741877,20.49820161228763C21.346672102741877,20.498199885668782,21.299032966051072,19.300801900057422,21.29608821784973,19.233082187827222C21.09293167108717,19.649698015165313,20.679630951662602,20.49820161228763,20.679630951662602,20.49820161228763C20.679630951662602,20.498199885668782,20.17361685094329,20.49820161228763,20.17361685094329,20.49820161228763C20.17361685094329,20.498199885668782,19.998763037993513,18.290018590704904,19.998763037993513,18.290018590704904ZZM7.145233253820834,18.708689094301917C7.018419153101604,18.7140416122877,6.903175124324434,18.759836720201292,6.795525627921734,18.846784921640165C6.710142865331818,18.91450377056117,6.65265052000791,19.00740535329487,6.607014261015138,19.108981468402817C6.607014261015138,19.108983195021437,7.51332073583535,19.108981468402817,7.51332073583535,19.108981468402817C7.5147969948282025,19.092789238186924,7.517870376123028,19.073119597899222,7.517870376123028,19.05839758351067C7.517868649504408,18.97448823099262,7.502888505619467,18.90932823099274,7.476390951662779,18.86516391444593C7.411618577561967,18.759169382071832,7.315681599144682,18.708689094301917,7.145233253820834,18.708689094301917ZC7.164328793389359,18.708689094301917,7.153685052382116,18.708343770560987,7.145233253820834,18.708689094301917ZZM9.542097714252577,18.708689094301917C9.415284476842544,18.7140416122877,9.300040448065602,18.759836720201292,9.19239008835325,18.846784921640165C9.107005340151773,18.91450377056117,9.050817714252616,19.00740535329487,9.003709512813657,19.108981468402817C9.003709512813657,19.108983195021437,9.91001598763387,19.108981468402817,9.91001598763387,19.108981468402817C9.911483613533164,19.092789238186924,9.91473828979224,19.073119597899222,9.91473828979224,19.05839758351067C9.914737426482816,18.97448823099262,9.901230088353259,18.90932823099274,9.873258865331763,18.86516391444593C9.860400735835356,18.84363384250355,9.8429782897922,18.82217024538113,9.827227210655565,18.80530549717969C9.765760448065521,18.74179096480566,9.681143181878497,18.708689094301917,9.542097714252577,18.708689094301917ZC9.561028361734543,18.708689094301917,9.550554692669948,18.708343770560987,9.542097714252577,18.708689094301917ZZM28.081666059576264,18.708689094301917C27.951258002022314,18.712703482791312,27.82953915310145,18.756940317323597,27.71830001641092,18.846784921640165C27.63438807396483,18.91450377056117,27.576728505619485,19.00740535329487,27.529620304180753,19.108981468402817C27.529622030799374,19.108983195021437,28.43137368547559,19.108981468402817,28.43137368547559,19.108981468402817C28.432841311374887,19.092789238186924,28.43592332576327,19.073119597899222,28.43592332576327,19.05839758351067C28.435922462454073,18.97448823099262,28.42258433295774,18.90932823099274,28.394613109936017,18.86516391444593C28.33131181497197,18.76064132451802,28.233733685475727,18.7101619000573,28.081666059576264,18.708689094301917ZC28.086706922885696,18.70873484969775,28.085869512813815,18.708602763366798,28.081666059576264,18.708689094301917ZZM16.028551814971934,18.71796362667601C15.906857138712894,18.732414561927953,15.793698002022438,18.787900317323647,15.688117858137502,18.88354377056112C15.561515268209405,18.99837168423005,15.469812822166205,19.17872477775518,15.416815987633981,19.417210533150865C15.394734261015174,19.517315569122275,15.384611095547598,19.6028565763163,15.384611095547598,19.679406216604093C15.384612822166218,19.783927943222807,15.40455181497191,19.865947511568265,15.444300304180615,19.927776864086354C15.454881886914336,19.943647943222913,15.46904188691451,19.96044621660417,15.481227498425142,19.973808518762326C15.546669800583459,20.04329456192795,15.637932822166249,20.079698590704993,15.75252936892889,20.079698590704993C15.901213685475568,20.079696864086145,16.032243325763375,20.024224921640325,16.157373973245285,19.909397871280362C16.28398001641085,19.79309801516547,16.374375412094196,19.6109993101295,16.428844189072606,19.36662578494952C16.478898865331757,19.14286031732354,16.4718533977059,18.97571067703575,16.401191527202172,18.869717007971076C16.333473541590593,18.766667223798322,16.234591814971964,18.71796362667601,16.028551814971934,18.71796362667601ZC16.07445138331741,18.71796362667601,16.051086779000798,18.71528736768323,16.028551814971934,18.71796362667601ZZM24.34161397324533,19.522931396460308C24.21648505238204,19.55678866264725,24.076224908497124,19.58541600077683,23.89073771425251,19.610443338906407C23.75235785813743,19.63105398638845,23.65374893727403,19.652771396460366,23.596335412094277,19.67485398638837C23.54628418907282,19.695462907251567,23.50592534015186,19.723920173438728,23.472066347346072,19.762196720201246C23.439678433677045,19.79899700797114,23.417959296986282,19.83758002955392,23.407654836554684,19.881745209409928C23.404710951662764,19.899411971999825,23.403105196267006,19.917607079913523,23.403105196267006,19.932329094302077C23.403105196267006,19.933520461208445,23.40307843367691,19.935868662647408,23.403105196267006,19.937051396460447C23.40327785813747,19.94055643243155,23.40275987252585,19.947498302935173,23.403105196267006,19.950878159050262C23.404028937274234,19.95756017343865,23.4058332538209,19.967589238186974,23.407654836554684,19.973809382071977C23.408345484036772,19.97585542523734,23.41144476461227,19.981078446819993,23.41220447684259,19.98308305113642C23.413818865331677,19.98703700797114,23.414923901302927,19.9929636266761,23.416926779000732,19.996741468402888C23.41902462072744,20.00047959789913,23.423556994828232,20.00699585689199,23.42603210274183,20.01056736768328C23.42988246245409,20.01586808710772,23.435165052382217,20.023978015165312,23.439858865331644,20.028946360489044C23.476662606339005,20.070165928834285,23.550198433676997,20.088804777755286,23.656192102741898,20.088804777755286C23.772492822166214,20.088805641064482,23.88430346964833,20.066813698618716,23.98735239051166,20.015288806532226C24.08893109554765,19.965236720201347,24.170811671086994,19.890532835309386,24.231169081159123,19.803677007971146C24.275335124324556,19.74184679214386,24.31069800202249,19.64659010149626,24.34161397324533,19.522931396460308ZZ" style="fill: rgb(255, 255, 255); fill-opacity: 1;"/></g></g></svg>